<svg width="54" height="11" viewBox="0 0 54 11" fill="none" xmlns="http://www.w3.org/2000/svg">
<path d="M53 2.61368C51.6594 2.82604 50.4124 3.44375 49.3367 4.06241C48.8112 4.36464 48.6874 5.09145 48.5776 5.81893C48.4677 6.54641 48.4677 7.36715 49.1073 7.78996C49.747 8.21277 51.0262 8.21277 51.6852 7.90499C52.3442 7.59721 52.3442 6.98165 52.131 6.35677C51.2166 3.67676 47.8346 2.82819 45.247 1.99812C38.9191 -0.0318234 28.4456 1.57842 27.1567 2.09449C26.4871 2.36259 25.8677 2.81575 25.5382 3.74531C25.2087 4.67486 25.2087 6.11117 25.6352 7.05627C26.0616 8.00137 26.9144 8.41174 27.7801 8.62314C28.6459 8.83455 29.4987 8.83455 30.0447 8.52677C30.5906 8.21899 30.8038 7.60343 30.807 6.97854C30.8103 6.35366 30.5971 5.7381 30.1674 5.3184C28.2732 3.46802 25.2216 2.82819 21.2482 2.10071C11.8113 0.372928 7.79032 1.37323 4.65036 2.71316C3.25511 3.30856 3.0287 5.09767 2.81226 6.33811C2.70473 6.95438 3.02222 7.57856 3.45187 8.20344C3.88151 8.82833 4.52114 9.44389 5.49027 9.76099C6.45939 10.0781 7.73865 10.0781 8.39765 9.77032C9.05666 9.46254 9.05664 8.84698 8.84343 8.2221C7.92903 5.54209 4.547 4.69352 0.999999 3.96604" stroke="#605F4B" stroke-width="2" stroke-linecap="round"/>
</svg>
