<svg width="956" height="228" viewBox="0 0 956 228" fill="none" xmlns="http://www.w3.org/2000/svg">
<path d="M11.1355 18.2564C11.7937 16.4006 13.7883 13.6028 15.2792 12.05C16.6674 10.6043 25.0276 10.7956 35.6636 11.2573C39.4169 11.4202 39.7175 12.6422 39.887 13.8872C40.0566 15.1322 40.0566 16.671 39.5629 17.6176C39.0693 18.5642 38.082 18.8719 37.0797 18.7227C36.0774 18.5735 35.0901 17.958 34.5815 17.0254C34.0729 16.0928 34.0729 14.8618 34.5666 13.9198C36.4995 10.2316 42.6894 10.1801 50.3335 9.70917C57.9963 9.23705 66.9731 9.2382 68.6336 10.1661C69.4447 10.6194 69.6358 11.7096 69.6408 12.6468C69.6458 13.5841 69.3167 14.5074 68.6535 15.1369C67.9903 15.7664 67.003 16.0741 66.3298 15.771C65.6567 15.468 65.3276 14.5447 65.4871 13.6074C65.6467 12.6702 66.3049 11.7469 67.1376 11.1174C70.3832 8.66387 94.0292 8.93045 106.7 11.7142C108.799 12.1756 107.871 15.7571 107.378 17.7761C106.957 19.4977 102.905 19.189 99.7486 18.7274C98.4832 18.5423 98.2377 17.3425 98.0682 16.2513C97.8987 15.1602 97.8987 13.9292 98.3923 12.9872C100.325 9.29899 105.857 9.24753 112.334 8.77657C122.108 8.06589 136.773 7.38234 141.265 7.52689C145.204 7.65362 144.102 13.5841 144.437 15.4446C144.603 16.369 144.112 17.3052 142.627 17.7808C141.141 18.2564 138.508 18.2564 137.151 17.3331C135.795 16.4099 135.795 14.5633 136.289 13.3043C137.875 9.25994 143.753 9.24753 163.475 9.08433C170.783 9.02385 173.682 11.1034 175.507 12.0313C176.445 12.5086 177.003 13.5748 177.342 14.9737C177.681 16.3726 177.681 18.2191 177.187 19.3242C176.694 20.4294 175.706 20.7371 174.704 20.7418C173.702 20.7465 172.714 20.4387 172.206 19.203C171.697 17.9673 171.697 15.813 172.191 14.3955C172.684 12.9779 173.672 12.3624 175.003 12.0453C180.526 10.73 184.642 10.1801 188.636 8.93511C192.927 7.59741 209.454 7.06525 219.551 7.99319C220.603 8.08981 221.541 8.61336 222.214 9.23354C223.59 10.5008 223.556 13.267 223.062 15.9063C222.842 17.0818 221.581 17.6223 220.25 17.9393C218.918 18.2564 217.273 18.2564 216.425 17.6409C215.577 17.0254 215.577 15.7944 216.071 14.8524C218.004 11.1642 223.536 11.1127 227.694 10.0216C232.366 8.79573 236.5 8.31493 249.599 8.30561C252.485 8.30355 253.454 9.22888 254.292 10.0076C255.129 10.7863 255.788 11.7096 256.127 12.8007C256.466 13.8919 256.466 15.1229 255.972 15.9109C255.478 16.699 254.491 17.0067 253.489 17.0114C252.487 17.0161 251.499 16.7083 251.155 16.0881C250.811 15.468 251.14 14.5447 251.803 13.9152C254.727 11.1398 259.438 10.1801 263.432 8.16105C265.329 7.20193 272.691 7.06525 282.33 7.52689C285.747 7.69055 286.045 8.91179 286.214 10.0029C286.384 11.0941 286.384 12.3251 285.397 12.9593C284.409 13.5934 282.435 13.5934 281.747 13.1318C281.059 12.6702 281.717 11.7469 282.549 10.9635C285.772 7.93201 296.277 7.99785 305.133 8.77191C318.256 9.91893 322.266 11.4112 326.26 12.6562C327.262 12.9686 328.25 13.2763 328.594 13.8965C328.938 14.5167 328.609 15.44 327.946 16.2234C326.563 17.8566 324.291 18.5642 322.466 18.5688C321.567 18.5711 320.97 17.3425 320.795 16.4052C320.621 15.468 320.95 14.5447 321.613 13.9152C326.578 9.20251 339.22 13.2764 347.353 13.4396C352.331 13.5395 356.173 11.7282 359.33 12.1899C360.595 12.3749 360.841 13.5748 360.517 14.3582C360.192 15.1415 359.205 15.7571 358.203 15.9203C357.201 16.0835 356.213 15.7757 355.705 14.54C354.39 11.3453 355.854 8.00718 357.345 6.4544C361.536 2.08932 372.13 4.58454 392.016 4.42134C400.147 4.35461 404.043 6.74817 407.708 8.30094C409.467 9.04614 409.049 12.0267 408.555 14.0457C408.338 14.9361 407.074 15.1415 406.237 14.8385C405.399 14.5354 404.741 13.6121 404.895 12.6748C405.245 10.5547 408.042 9.55529 410.031 8.78123C419.942 4.92543 437.95 7.68077 441.286 10.0076C442.745 11.0252 440.633 13.5841 439.641 15.1369C439.156 15.8954 437.99 16.0741 437.152 15.771C436.315 15.468 435.656 14.5447 435.482 13.6074C435.14 11.7689 436.634 9.87237 438.125 8.3196C440.913 5.41566 446.587 6.13266 451.912 5.20472C456.995 4.319 461.546 2.71935 467.534 1.47433C473.769 0.178163 481.83 1.7681 485.824 3.48408C487.916 4.38256 489.819 5.81557 491.479 7.20981C492.276 7.8788 492.481 8.9118 492.157 9.69518C491.439 11.4302 488.841 12.3438 486.852 13.1225C485.913 13.4898 484.862 12.9779 484.518 12.3577C484.174 11.7376 484.503 10.8143 485.166 10.1848C487.987 7.50772 492.8 7.38234 496.795 6.13732C500.898 4.85819 519.248 3.33486 530.702 4.2628C534.896 4.60261 537.688 6.44041 539.019 7.36835C539.618 7.78587 539.034 8.9118 538.371 9.69518C535.621 12.9432 531.395 12.6608 529.894 12.507C526.734 12.183 537.997 9.86304 544.15 9.08899C555.537 7.65651 559.618 10.4786 576.691 11.2573C580.272 11.4206 580.9 12.6422 581.074 13.5794C581.249 14.5167 580.92 15.44 580.092 15.9156C579.264 16.3912 577.948 16.3912 577.105 15.9296C576.263 15.468 575.933 14.5447 575.928 13.6074C575.923 12.6702 576.253 11.7469 576.916 10.9635C579.665 7.71544 584.55 7.38234 588.709 5.36326C593.195 3.18516 598.173 2.71935 611.611 2.55615C617.584 2.48361 621.449 4.88298 625.443 6.28187C626.492 6.64904 627.433 7.36368 627.777 8.1424C628.121 8.92112 627.792 9.84439 627.129 10.4739C625.773 11.7602 623.474 12.036 621.813 12.0407C621.066 12.0428 620.811 10.8143 621.135 9.87703C622.582 5.6919 628.43 5.51714 636.538 4.426C661.098 1.1208 665.329 5.81557 669.323 7.06059C670.326 7.37301 671.313 7.68077 671.657 8.30094C672.417 9.67105 670.675 11.7189 669.184 13.2717C668.468 14.0168 667.364 14.2089 666.362 14.2136C665.359 14.2183 664.372 13.9105 663.863 12.9826C663.355 12.0546 663.355 10.5159 663.848 9.56928C665.688 6.04133 672.629 6.13266 679.77 5.3586C689.103 4.34683 696.255 5.50782 697.586 6.58963C699.205 7.90479 695.946 11.0941 693.458 13.1131C692.367 13.9978 691.298 14.2089 690.461 13.9059C689.623 13.6028 688.965 12.6795 688.955 11.7422C688.934 9.78553 691.269 8.31493 693.258 7.22846C703.012 1.90195 722.184 7.36368 723.68 9.84439C725.007 12.0446 724.518 14.5167 724.523 16.2234C724.525 17.0633 723.211 17.6223 722.209 17.7855C721.207 17.9487 720.219 17.6409 719.875 17.0207C719.531 16.4005 719.86 15.4773 720.524 14.6939C723.273 11.4458 728.158 11.1127 733.139 10.0216C741.906 8.10124 758.615 8.93045 766.902 12.022C768.149 12.487 767.072 14.8058 765.755 15.5985C764.439 16.3912 761.806 16.3912 760.285 15.9296C758.764 15.468 758.435 14.5447 758.43 13.6074C758.425 12.6702 758.754 11.7469 759.417 11.1174C762.238 8.44031 767.052 8.31493 771.873 7.06992C776.087 5.98194 780.016 4.58454 784.998 3.49341C793.764 1.57318 797.967 5.81557 801.797 8.1424C803.772 9.34273 803.971 12.6422 803.477 15.2861C803.308 16.1937 801.996 15.7757 801.488 14.6939C800.979 13.6121 800.979 11.7655 801.473 10.5065C803.058 6.46215 808.937 6.44974 816.058 5.3586C835.614 2.36192 838.866 6.44041 840.526 7.36835C841.337 7.82166 841.528 8.91179 841.369 9.84906C841.209 10.7863 840.551 11.7096 839.389 12.1852C838.227 12.6608 836.582 12.6608 835.734 11.8914C834.886 11.1221 834.886 9.58327 835.216 8.32892C835.545 7.07458 836.203 6.15131 837.036 5.5218C842.415 1.45493 853.815 3.65195 868.569 3.64262C872.878 3.6399 874.768 5.81557 876.428 7.20981C877.225 7.8788 877.43 8.91179 877.435 10.0029C877.44 11.0941 877.111 12.3251 876.448 13.1131C875.785 13.9012 874.797 14.2089 874.124 13.9059C873.451 13.6028 873.122 12.6795 873.282 11.7422C873.62 9.75568 875.765 8.31493 877.754 7.22846C886.379 2.51894 903.679 7.36368 907.673 9.23354C909.984 10.3157 911.667 12.3438 912.998 13.738C913.598 14.3665 913.013 15.44 912.514 15.454C912.016 15.468 911.358 14.5447 911.348 13.6074C911.338 12.6702 911.996 11.7469 912.829 11.1174C916.185 8.58022 922.607 7.99785 929.927 7.22379C936.489 6.52986 941.585 7.37301 943.575 8.14707C945.7 8.97377 947.569 10.7863 949.394 12.6468C952.58 15.8952 952.565 32.4132 950.416 42.1822C949.997 44.0853 945.604 43.4365 942.448 42.9749C941.182 42.7898 940.937 41.59 941.261 40.8066C941.585 40.0232 942.572 39.4077 943.575 39.2445C945.541 38.9244 947.569 40.6294 949.229 42.49C952.003 45.5982 952.226 49.9461 953.722 53.6811C955.912 59.1496 954.899 66.7328 953.567 70.4679C952.236 74.2029 950.91 77.924 948.586 81.659C947.98 82.6327 947.26 83.5196 946.427 84.1491C945.594 84.7786 944.607 85.0863 943.605 84.7832C942.602 84.4801 941.615 83.5569 941.106 82.4657C940.598 81.3746 940.598 80.1436 941.256 79.5094C941.914 78.8752 943.231 78.8752 944.073 79.3369C947.474 81.1998 947.898 86.3174 949.568 90.2063C951.526 94.7641 951.229 99.3737 952.56 104.037C954.545 110.989 952.246 119.891 950.246 123.472C949.752 124.358 948.596 124.871 947.594 124.88C946.591 124.89 945.604 124.274 944.931 123.495C944.258 122.717 943.929 121.793 944.253 121.01C944.577 120.227 945.564 119.611 946.566 119.602C947.569 119.592 948.556 120.208 949.229 120.987C951.942 124.125 953.223 128.284 953.233 155.241C953.236 161.922 951.239 163.732 950.246 165.439C949.736 166.317 948.596 166.838 947.594 167.001C946.591 167.164 945.604 166.856 945.095 165.775C944.587 164.693 944.587 162.846 945.245 161.895C945.903 160.944 947.22 160.944 948.062 161.405C951.605 163.346 952.226 168.386 952.401 189.924C952.461 197.385 949.912 201.027 948.252 204.454C947.862 205.259 946.601 205.391 945.599 205.396C944.597 205.401 943.61 205.093 942.936 204.473C942.263 203.853 941.934 202.929 942.258 202.3C942.582 201.67 943.57 201.363 944.572 201.512C945.574 201.661 946.562 202.276 947.07 203.517C947.579 204.757 947.579 206.604 947.085 208.017C945.396 212.85 940.279 215.016 936.624 216.895C929.035 220.796 914.689 218.448 892.649 218.303C888.055 218.273 887.423 216.918 887.084 215.519C886.745 214.12 886.745 212.274 887.238 211.169C887.732 210.064 888.719 209.756 889.557 210.059C890.395 210.362 891.053 211.285 891.228 212.223C891.57 214.061 890.076 215.958 888.42 217.357C884.909 220.323 868.594 218.765 848.649 217.688C841.782 217.317 841.867 214.456 842.361 213.193C843.13 211.225 845.846 210.689 847.836 210.064C848.786 209.765 849.826 210.67 850.334 211.756C850.843 212.843 850.843 214.382 850.185 215.482C847.304 220.298 824.096 219.697 811.635 220.471C805.966 220.824 793.44 221.563 785.202 220.327C784.147 220.169 783.706 218.783 783.367 217.692C783.028 216.601 783.028 215.37 783.357 214.274C783.686 213.179 784.344 212.255 785.177 211.626C786.01 210.996 786.997 210.689 787.999 210.684C789.002 210.679 789.989 210.987 790.827 211.607C791.664 212.227 792.323 213.151 792.662 214.396C793.001 215.641 793.001 217.179 792.507 218.126C790.744 221.508 784.384 220.63 779.223 221.558C774.622 222.385 754.945 223.428 742.324 221.726C737.636 221.094 731.868 219.082 727.195 217.837C725.179 217.299 723.201 216.592 721.376 215.664C720.438 215.187 719.88 214.12 720.035 213.337C720.19 212.554 721.177 211.938 722.508 211.621C723.84 211.304 725.485 211.304 726.168 211.766C727.402 212.6 725.854 215.025 724.862 216.578C722.8 219.804 696.823 218.765 682.483 216.755C681.314 216.591 680.987 215.053 680.648 213.962C680.308 212.871 680.308 211.64 680.802 210.852C681.757 209.328 684.288 209.131 686.113 209.126C687.011 209.124 687.609 210.353 687.948 211.598C688.287 212.843 688.287 214.382 687.793 215.482C686.881 217.516 684.308 218.448 682.318 219.534C680.455 220.551 663.185 220.63 638.258 220.322C629.452 220.214 628.47 219.399 627.961 218.159C627.453 216.918 627.453 215.072 627.946 213.967C629.531 210.42 634.753 211.304 636.912 211.766C637.864 211.969 638.084 213.151 637.76 214.088C636.312 218.273 630.465 219.063 623.015 220.471C601.959 224.452 597.554 219.082 593.725 217.529C592.745 217.132 592.229 215.986 592.054 215.048C591.88 214.111 592.209 213.188 592.872 212.251C593.535 211.313 594.523 210.39 596.019 209.914C597.515 209.439 599.489 209.439 600.506 210.208C601.524 210.978 601.524 212.516 601.194 213.771C599.658 219.626 591.571 223.111 587.412 225.13C579.265 229.086 565.642 225.61 560.82 225.139C554.659 224.537 546.035 223.745 539.064 222.654C525.914 220.595 520.445 221.563 515.937 220.327C514.912 220.046 514.441 218.783 515.09 217.385C516.819 213.652 520.734 211.929 522.395 211.924C523.142 211.922 523.397 213.151 523.402 214.242C523.407 215.333 523.078 216.564 522.25 217.506C514.452 226.38 490.846 220.313 482.05 220.168C480.131 220.137 479.537 218.783 479.198 217.538C478.858 216.293 478.858 214.755 479.352 213.654C479.846 212.554 480.833 211.938 482 211.621C483.167 211.304 484.483 211.304 485.161 212.073C485.839 212.843 485.839 214.382 485.346 215.328C483.582 218.71 477.881 218.448 441.107 218.303C433.636 218.274 433.323 216.918 433.482 215.981C433.821 213.994 435.966 212.554 437.955 211.467C438.924 210.938 439.945 210.689 440.782 210.992C441.62 211.295 442.278 212.218 442.453 213.155C442.627 214.092 442.298 215.016 441.635 215.799C438.453 219.558 431.009 218.448 426.686 219.539C423.807 220.265 420.697 220.005 411.792 220.471C374.877 222.404 369.188 221.563 364.536 221.101C362.045 220.854 361.848 217.842 361.514 215.981C361.348 215.057 361.838 214.12 362.501 213.337C363.164 212.554 364.152 211.938 365.318 211.621C366.485 211.304 367.802 211.304 368.151 211.766C369.024 212.921 366.176 214.717 364.187 215.804C360.502 217.816 338.442 217.832 323.812 218.606C317.387 218.946 311.994 217.534 309.835 215.053C308.838 213.907 308.663 212.572 308.823 211.477C308.982 210.381 309.641 209.457 310.473 209.136C311.306 208.814 312.293 209.122 312.802 210.05C313.31 210.978 313.31 212.516 312.652 213.309C309.907 216.615 296.457 215.034 288.064 215.962C281.893 216.645 275.454 219.996 267.795 221.558C259.948 223.158 251.489 222.187 249.664 221.26C247.707 220.264 247.161 217.842 246.827 215.827C246.648 214.749 247.151 213.505 247.814 212.717C248.478 211.929 249.465 211.621 250.632 211.463C251.798 211.304 253.115 211.304 253.464 211.766C253.813 212.227 253.155 213.151 252.322 213.78C249.076 216.234 244.518 216.583 239.367 217.828C232.956 219.377 217.692 219.697 207.953 218.923C200.638 218.342 196.978 217.832 194.32 217.371C193.213 217.178 192.979 215.986 192.974 215.048C192.969 214.111 193.298 213.188 193.961 212.558C195.317 211.272 197.616 210.996 199.441 210.992C200.34 210.989 200.937 212.218 200.783 212.847C199.948 216.245 193.657 216.583 187.688 217.674C173.953 220.185 153.267 218.765 140.797 217.063C139.687 216.911 138.807 216.284 137.969 215.664C137.132 215.044 136.473 214.12 136.134 212.722C135.795 211.323 135.795 209.476 136.289 208.371C136.782 207.266 137.77 206.958 138.772 206.953C139.774 206.949 140.762 207.257 141.27 208.184C141.779 209.112 141.779 210.651 141.285 211.752C139.462 215.815 133.821 216.583 128.834 217.828C123.286 219.213 117.206 219.38 108.759 220.471C84.1754 223.647 79.9676 218.149 76.1381 215.822C74.1625 214.622 73.6349 212.246 73.4654 210.385C73.2827 208.381 75.9486 206.958 77.9381 205.872C79.8006 204.855 82.2613 204.776 84.0913 205.237C85.5322 205.601 83.2786 208.497 81.7876 210.05C78.9043 213.053 73.9839 214.4 69.1621 215.962C65.0316 217.3 60.3611 217.832 56.028 218.76C49.1775 220.227 39.0792 219.082 34.2574 218.611C29.9581 218.191 25.4564 216.9 21.1233 215.972C17.0194 215.093 13.15 213.486 9.3205 211.159C5.4876 208.831 5.49095 203.862 6.30872 200.127C6.53326 199.101 7.46556 198.266 8.29829 197.637C9.91411 196.415 12.4519 196.382 14.6111 196.844C15.5631 197.048 15.7829 198.229 15.7878 199.166C15.7928 200.104 15.4637 201.027 14.8005 201.349C11.3536 203.021 7.82458 196.401 6.15414 192.666C2.3079 184.066 5.81008 168.423 8.29829 164.842C8.94184 163.916 10.1183 163.443 11.1206 163.28C12.1228 163.117 13.1102 163.424 13.6188 164.199C14.1274 164.973 14.1274 166.204 13.1401 166.838C12.1528 167.472 10.1782 167.472 8.83183 167.01C6.49191 166.208 5.16185 163.751 3.66594 161.429C0.288069 156.185 2.16005 151.021 1.33231 144.661C0.197197 135.938 2.15008 129.553 4.46874 128.62C7.22108 127.513 10.1283 128.918 11.9533 130.313C13.7778 131.706 14.7856 133.889 15.2892 135.442C15.4897 136.06 14.1473 136.379 12.9805 136.538C11.8137 136.696 10.4973 136.696 9.65459 136.235C6.2538 134.372 6.48823 129.254 5.15687 125.519C2.1081 116.966 4.81281 102.209 6.47327 98.6276C7.3594 96.7165 10.1283 96.2868 12.1179 96.1283C13.1291 96.0477 14.1074 96.893 14.616 97.9795C15.1247 99.066 15.1247 100.605 14.631 101.551C14.1373 102.498 13.15 102.806 12.1478 102.81C11.1455 102.815 10.1582 102.507 9.6496 101.733C7.22204 98.0387 6.48823 93.8154 5.98461 89.3063C5.4088 84.1509 4.49368 77.9613 3.32686 72.9952C2.05188 67.5688 3.81553 63.0304 5.14191 61.1699C7.76624 57.4887 12.1129 55.8774 15.7779 55.2479C17.4013 54.969 17.1192 59.5798 16.2965 62.8439C15.9651 64.1583 13.8282 63.9537 12.4869 63.492C7.73357 61.8561 7.48551 56.5116 6.98188 51.2284C6.35896 44.6937 6.80736 35.9944 8.13872 32.2594C9.14099 27.2933 9.79919 21.9961 10.961 20.1356C11.4646 19.1983 11.7937 18.2751 13.1301 16.3912" stroke="#9C9E80" stroke-width="2" stroke-linecap="round"/>
</svg>
